<?xml version="1.0" encoding="iso-8859-1"?>
<!-- Generator: Adobe Illustrator 24.0.1, SVG Export Plug-In . SVG Version: 6.00 Build 0)  -->
<svg version="1.1" id="&#xB808;&#xC774;&#xC5B4;_1" xmlns="http://www.w3.org/2000/svg" xmlns:xlink="http://www.w3.org/1999/xlink"
	 x="0px" y="0px" viewBox="0 0 120 30" style="enable-background:new 0 0 120 30;" xml:space="preserve">
<g>
	<path style="fill:#FFFFFF;" d="M13.824,18.52c-0.702-0.46-1.499-0.847-2.39-1.157c-0.891-0.312-1.751-0.593-2.579-0.847
		c-0.594-0.185-1.076-0.403-1.444-0.657c-0.369-0.253-0.662-0.53-0.877-0.83c-0.216-0.299-0.36-0.622-0.432-0.968
		c-0.072-0.346-0.108-0.703-0.108-1.071c0-0.208,0.022-0.472,0.067-0.795c0.045-0.322,0.148-0.627,0.311-0.916
		c0.162-0.288,0.396-0.536,0.702-0.743c0.306-0.208,0.72-0.311,1.242-0.311c0.486,0,0.877,0.133,1.175,0.397
		c0.297,0.265,0.526,0.593,0.688,0.985c0.162,0.392,0.274,0.83,0.337,1.313c0.063,0.484,0.112,0.933,0.148,1.348h5.211
		c-0.216-1.198-0.576-2.171-1.08-2.92c-0.504-0.749-1.093-1.336-1.769-1.763c-0.675-0.426-1.413-0.714-2.214-0.864
		c-0.801-0.15-1.606-0.225-2.417-0.225c-0.828,0-1.688,0.115-2.579,0.345c-0.891,0.23-1.701,0.604-2.43,1.122
		c-0.729,0.518-1.328,1.19-1.796,2.018c-0.468,0.828-0.702,1.84-0.702,3.036c0,0.966,0.18,1.777,0.54,2.432
		c0.36,0.655,0.828,1.207,1.404,1.655c0.576,0.449,1.215,0.822,1.917,1.122c0.702,0.299,1.395,0.552,2.079,0.759
		c0.216,0.068,0.558,0.161,1.026,0.276c0.468,0.115,0.949,0.293,1.444,0.534s0.954,0.587,1.377,1.035
		c0.422,0.448,0.706,1.029,0.85,1.742c0.072,0.414,0.095,0.822,0.068,1.225c-0.027,0.402-0.131,0.765-0.311,1.087
		c-0.18,0.321-0.446,0.586-0.797,0.793c-0.351,0.207-0.796,0.311-1.336,0.311s-1.021-0.132-1.444-0.395
		c-0.423-0.263-0.788-0.606-1.093-1.029c-0.307-0.423-0.549-0.902-0.729-1.439c-0.18-0.538-0.289-1.081-0.324-1.63H0.243
		c0.27,1.176,0.666,2.172,1.188,2.99c0.521,0.817,1.125,1.474,1.809,1.97c0.684,0.495,1.444,0.852,2.281,1.071
		c0.837,0.219,1.714,0.328,2.632,0.328c1.152,0,2.232-0.133,3.24-0.397c1.008-0.265,1.876-0.674,2.605-1.227s1.305-1.25,1.728-2.091
		c0.423-0.841,0.634-1.837,0.634-2.989c0-1.129-0.243-2.068-0.729-2.817C15.147,19.586,14.544,18.981,13.824,18.52z"/>
	<path style="fill:#FFFFFF;" d="M28.147,25.29c-0.171,0.569-0.383,1.062-0.634,1.479c-0.252,0.418-0.563,0.743-0.932,0.976
		c-0.369,0.231-0.814,0.348-1.336,0.348c-0.63,0-1.166-0.289-1.606-0.865c-0.441-0.577-0.797-1.299-1.066-2.164
		c-0.27-0.866-0.464-1.818-0.581-2.857c-0.118-1.039-0.176-2.031-0.176-2.978c0-0.924,0.045-1.916,0.135-2.978
		c0.09-1.062,0.261-2.038,0.513-2.926c0.252-0.889,0.598-1.628,1.04-2.216c0.441-0.589,1.021-0.883,1.742-0.883
		c0.558,0,1.03,0.144,1.417,0.432c0.387,0.289,0.711,0.651,0.972,1.089c0.26,0.438,0.459,0.916,0.594,1.434
		c0.135,0.519,0.22,1.008,0.256,1.469h4.725c-0.774-2.234-1.8-3.819-3.078-4.752c-1.278-0.933-2.907-1.399-4.887-1.399
		c-1.476,0-2.759,0.282-3.848,0.847c-1.089,0.565-1.994,1.331-2.713,2.298c-0.72,0.967-1.255,2.103-1.606,3.404
		c-0.351,1.302-0.526,2.691-0.526,4.165c0,1.475,0.175,2.857,0.526,4.147s0.886,2.414,1.606,3.369
		c0.72,0.956,1.624,1.711,2.713,2.264c1.089,0.554,2.372,0.83,3.848,0.83c0.99,0,1.885-0.104,2.687-0.312
		c0.801-0.207,1.525-0.553,2.173-1.037c0.648-0.483,1.233-1.135,1.755-1.952s0.999-1.837,1.431-3.059h-4.698
		C28.467,24.112,28.318,24.722,28.147,25.29z"/>
	<path style="fill:#FFFFFF;" d="M46.709,8.947c-1.35-0.346-2.579-0.46-3.686-0.346c-1.107,0.116-2.102,0.415-2.983,0.898V8.843
		h-6.345v0.967c0.306,0.023,0.549,0.167,0.729,0.432c0.18,0.265,0.27,0.79,0.27,1.573v14.93c0,0.207-0.004,0.409-0.014,0.604
		s-0.045,0.381-0.108,0.554s-0.158,0.316-0.283,0.432c-0.126,0.115-0.307,0.184-0.54,0.207v0.588
		c0.558,0.229,1.201,0.374,1.93,0.432s1.417-0.046,2.066-0.311c0.648-0.266,1.192-0.738,1.633-1.417
		c0.441-0.68,0.662-1.653,0.662-2.921V14.234c0-0.83,0.175-1.538,0.526-2.125s0.828-1.007,1.431-1.261
		c0.603-0.253,1.309-0.329,2.119-0.225c0.81,0.104,1.674,0.42,2.592,0.95V8.947z"/>
	<path style="fill:#FFFFFF;" d="M47.276,26.711c0,0.46-0.054,0.863-0.162,1.209s-0.378,0.541-0.81,0.588v0.587
		c0.36,0.161,0.77,0.277,1.229,0.346c0.459,0.069,0.922,0.087,1.391,0.052c0.468-0.034,0.922-0.138,1.364-0.311
		c0.44-0.173,0.837-0.438,1.188-0.795c0.351-0.357,0.629-0.824,0.837-1.399c0.207-0.576,0.311-1.279,0.311-2.108V8.843h-5.346
		V26.711z"/>
	<path style="fill:#FFFFFF;" d="M47.087,6.77h4.266c0.918,0,1.377-0.657,1.377-1.97V0.203h-5.643V6.77z"/>
	<path style="fill:#FFFFFF;" d="M71.873,15.046c-0.36-1.301-0.904-2.437-1.633-3.404c-0.729-0.968-1.647-1.733-2.754-2.298
		c-1.107-0.564-2.408-0.847-3.902-0.847c-0.684,0-1.327,0.086-1.93,0.259c-0.604,0.173-1.166,0.409-1.688,0.708V0.549h-6.237v0.967
		c0.378,0.047,0.643,0.196,0.796,0.45c0.153,0.253,0.229,0.76,0.229,1.521L54.729,26.33c0,0.554-0.081,1.003-0.243,1.349
		c-0.162,0.345-0.45,0.518-0.864,0.518v0.727c0.162,0.068,0.387,0.138,0.675,0.207c0.288,0.069,0.603,0.126,0.945,0.173
		c0.342,0.046,0.693,0.086,1.053,0.121c0.36,0.034,0.684,0.052,0.972,0.052h2.7v-0.622c0.522,0.299,1.084,0.535,1.688,0.708
		c0.603,0.173,1.246,0.26,1.93,0.26c1.494,0,2.795-0.276,3.902-0.83c1.106-0.553,2.024-1.308,2.754-2.264
		c0.729-0.955,1.272-2.079,1.633-3.369s0.54-2.673,0.54-4.147C72.413,17.737,72.233,16.349,71.873,15.046z M66.933,22.166
		c-0.126,1.025-0.329,1.965-0.607,2.816c-0.279,0.853-0.645,1.561-1.094,2.126c-0.45,0.563-0.999,0.847-1.647,0.847
		c-0.666,0-1.224-0.283-1.674-0.847c-0.45-0.565-0.814-1.273-1.093-2.126c-0.279-0.852-0.477-1.791-0.594-2.816
		s-0.175-2.01-0.175-2.955c0-0.921,0.058-1.912,0.175-2.972c0.117-1.06,0.315-2.034,0.594-2.921
		c0.279-0.886,0.643-1.624,1.093-2.211c0.45-0.588,1.008-0.881,1.674-0.881s1.225,0.288,1.675,0.864
		c0.449,0.576,0.813,1.308,1.093,2.195c0.279,0.887,0.478,1.854,0.595,2.903c0.116,1.048,0.175,2.056,0.175,3.023
		C67.121,20.156,67.059,21.141,66.933,22.166z"/>
	<path style="fill:#FFFFFF;" d="M90.152,15.046c-0.36-1.301-0.904-2.437-1.633-3.404c-0.729-0.968-1.647-1.733-2.754-2.298
		c-1.107-0.564-2.408-0.847-3.902-0.847c-0.684,0-1.327,0.086-1.93,0.259c-0.604,0.173-1.166,0.409-1.688,0.708V0.549h-6.237v0.967
		c0.378,0.047,0.644,0.196,0.797,0.45c0.152,0.253,0.229,0.76,0.229,1.521L73.008,26.33c0,0.554-0.081,1.003-0.243,1.349
		c-0.162,0.345-0.45,0.518-0.864,0.518v0.727c0.162,0.068,0.387,0.138,0.676,0.207c0.287,0.069,0.603,0.126,0.944,0.173
		c0.342,0.046,0.693,0.086,1.053,0.121c0.36,0.034,0.685,0.052,0.973,0.052h2.7v-0.622c0.521,0.299,1.084,0.535,1.688,0.708
		c0.603,0.173,1.246,0.26,1.93,0.26c1.494,0,2.795-0.276,3.902-0.83c1.106-0.553,2.024-1.308,2.754-2.264
		c0.729-0.955,1.272-2.079,1.633-3.369s0.54-2.673,0.54-4.147C90.692,17.737,90.513,16.349,90.152,15.046z M85.212,22.166
		c-0.126,1.025-0.329,1.965-0.607,2.816c-0.279,0.853-0.645,1.561-1.094,2.126c-0.45,0.563-0.999,0.847-1.647,0.847
		c-0.666,0-1.224-0.283-1.674-0.847c-0.45-0.565-0.814-1.273-1.093-2.126c-0.279-0.852-0.478-1.791-0.595-2.816
		s-0.175-2.01-0.175-2.955c0-0.921,0.058-1.912,0.175-2.972c0.117-1.06,0.315-2.034,0.595-2.921
		c0.278-0.886,0.643-1.624,1.093-2.211c0.45-0.588,1.008-0.881,1.674-0.881s1.225,0.288,1.675,0.864
		c0.449,0.576,0.813,1.308,1.093,2.195c0.279,0.887,0.478,1.854,0.595,2.903c0.116,1.048,0.175,2.056,0.175,3.023
		C85.4,20.156,85.338,21.141,85.212,22.166z"/>
	<path style="fill:#FFFFFF;" d="M90.747,1.516c0.359,0.047,0.616,0.202,0.77,0.467c0.152,0.265,0.229,0.812,0.229,1.642v22.429
		c0,0.139-0.005,0.34-0.014,0.605c-0.01,0.264-0.05,0.529-0.122,0.794c-0.071,0.265-0.188,0.502-0.351,0.709
		s-0.388,0.322-0.675,0.346v0.553c0.558,0.23,1.21,0.368,1.957,0.415c0.747,0.046,1.458-0.087,2.133-0.397
		c0.676-0.312,1.247-0.842,1.715-1.59c0.468-0.749,0.702-1.803,0.702-3.162V0.549h-6.345V1.516z"/>
	<path style="fill:#FFFFFF;" d="M113.035,11.504c-0.729-0.921-1.634-1.653-2.714-2.195c-1.08-0.541-2.331-0.812-3.753-0.812
		c-1.494,0-2.79,0.282-3.888,0.847c-1.098,0.565-2.012,1.331-2.74,2.298c-0.729,0.967-1.27,2.103-1.62,3.404
		c-0.352,1.302-0.526,2.691-0.526,4.165c0,1.475,0.175,2.857,0.526,4.147c0.351,1.29,0.891,2.414,1.62,3.369
		c0.729,0.956,1.643,1.711,2.74,2.264c1.098,0.554,2.394,0.83,3.888,0.83c0.774,0,1.57-0.104,2.39-0.312
		c0.819-0.207,1.598-0.535,2.336-0.984c0.737-0.449,1.399-1.032,1.984-1.746s1.03-1.577,1.336-2.592h-4.859
		c-0.108,0.507-0.262,0.991-0.459,1.452c-0.198,0.461-0.437,0.869-0.716,1.227c-0.279,0.356-0.59,0.64-0.932,0.847
		s-0.702,0.311-1.08,0.311c-0.72,0-1.305-0.306-1.755-0.915c-0.45-0.611-0.796-1.349-1.039-2.212
		c-0.243-0.864-0.396-1.757-0.459-2.679c-0.063-0.921-0.077-1.693-0.041-2.315h11.935c0.018-0.299,0.026-0.513,0.026-0.64
		c0-0.126,0-0.219,0-0.276s0-0.109,0-0.155s0-0.149,0-0.312c0-1.336-0.185-2.609-0.553-3.818
		C114.313,13.491,113.765,12.426,113.035,11.504z M103.383,18.174c-0.019-0.852,0.036-1.745,0.162-2.678
		c0.125-0.933,0.319-1.791,0.58-2.575c0.261-0.783,0.594-1.428,0.999-1.935s0.887-0.76,1.444-0.76c0.54,0,1.008,0.242,1.404,0.726
		c0.396,0.484,0.725,1.106,0.985,1.866s0.454,1.613,0.581,2.558c0.125,0.945,0.188,1.878,0.188,2.799H103.383z"/>
	<path style="fill:#FFFFFF;" d="M115.487,24.779v5.026h3.36c0.378,0,0.644-0.121,0.798-0.363c0.154-0.241,0.231-0.622,0.231-1.142
		v-3.521H115.487z"/>
</g>
</svg>
