<?xml version="1.0" encoding="iso-8859-1"?>
<!-- Generator: Adobe Illustrator 24.0.1, SVG Export Plug-In . SVG Version: 6.00 Build 0)  -->
<svg version="1.1" id="&#xB808;&#xC774;&#xC5B4;_1" xmlns="http://www.w3.org/2000/svg" xmlns:xlink="http://www.w3.org/1999/xlink"
	 x="0px" y="0px" viewBox="0 0 120 30" style="enable-background:new 0 0 120 30;" xml:space="preserve">
<g>
	<path style="fill:#FFFFFF;" d="M12.237,22.077c0,1.442-0.685,2.164-2.055,2.164H3.366c-1.36,0-2.041-0.722-2.041-2.164v-5.646
		h3.386v4.828h4.139v-4.646L2.064,9.892C1.572,9.397,1.326,8.767,1.326,8V2.732c0-1.453,0.68-2.18,2.041-2.18h6.815
		c1.37,0,2.055,0.717,2.055,2.149V8H8.851V3.534H4.712v4.284l6.787,6.691c0.492,0.484,0.738,1.125,0.738,1.922V22.077z"/>
	<path style="fill:#FFFFFF;" d="M19.641,24.241h-3.675c-1.225,0-1.838-0.631-1.838-1.893V11.904h-1.563V8.953h1.563V4.806h3.299
		v4.147h2.127v2.951h-2.127v9.386h2.214V24.241z"/>
	<path style="fill:#FFFFFF;" d="M29.477,24.241h-3.169v-0.529c-0.752,0.121-1.505,0.242-2.257,0.363
		c-0.984,0.15-1.732,0.227-2.243,0.227c-1.206,0-1.809-0.621-1.809-1.861v-5.51c0-1.262,0.622-1.893,1.867-1.893h4.471v-3.512
		h-3.169v2.18h-2.996v-2.861c0-1.261,0.623-1.892,1.867-1.892h5.6c1.225,0,1.838,0.631,1.838,1.892V24.241z M26.336,21.486v-4.103
		h-3.169v4.224L26.336,21.486z"/>
	<path style="fill:#FFFFFF;" d="M39.645,15.341H36.36v-3.497l-2.619,0.061v12.337h-3.314V8.953h3.314v0.56
		c0.685-0.131,1.365-0.262,2.04-0.394c0.82-0.151,1.505-0.227,2.055-0.227c1.206,0,1.809,0.621,1.809,1.862V15.341z"/>
	<path style="fill:#FFFFFF;" d="M49.278,22.349c0,1.262-0.613,1.893-1.838,1.893h-5.571c-1.225,0-1.837-0.631-1.837-1.893v-3.284
		h3.169v2.573h2.909v-2.422l-5.08-3.133c-0.666-0.414-0.998-0.969-0.998-1.666v-3.572c0-1.261,0.622-1.892,1.867-1.892h5.513
		c1.225,0,1.838,0.631,1.838,1.892v3.073h-3.14v-2.361h-2.909v2.21l5.064,3.104c0.675,0.403,1.013,0.969,1.013,1.695V22.349z"/>
	<path style="fill:#FFFFFF;" d="M59.62,22.349c0,1.262-0.622,1.893-1.867,1.893h-5.716c-1.245,0-1.867-0.631-1.867-1.893V10.845
		c0-1.261,0.622-1.892,1.867-1.892h5.716c1.245,0,1.867,0.631,1.867,1.892v5.616l-0.912,0.954H53.34v4.283h3.111v-2.543h3.169
		V22.349z M56.451,15.159v-3.663H53.34v3.663H56.451z"/>
	<path style="fill:#FFFFFF;" d="M70.021,24.241h-3.17v-0.529c-0.752,0.121-1.505,0.242-2.257,0.363
		c-0.984,0.15-1.731,0.227-2.243,0.227c-1.206,0-1.809-0.621-1.809-1.861v-5.51c0-1.262,0.622-1.893,1.866-1.893h4.472v-3.512
		h-3.169v2.18h-2.995v-2.861c0-1.261,0.622-1.892,1.866-1.892h5.601c1.225,0,1.838,0.631,1.838,1.892V24.241z M66.88,21.486v-4.103
		h-3.169v4.224L66.88,21.486z"/>
	<path style="fill:#FFFFFF;" d="M77.28,24.241h-3.676c-1.226,0-1.838-0.631-1.838-1.893V11.904h-1.563V8.953h1.563V4.806h3.3v4.147
		h2.127v2.951h-2.127v9.386h2.214V24.241z"/>
	<path style="fill:#FFFFFF;" d="M88.983,22.077c0,1.442-0.689,2.164-2.069,2.164H77.87V0.552h8.986c1.341,0,2.012,0.727,2.012,2.18
		v6.1c0,0.808-0.241,1.433-0.724,1.877c-0.068,0.061-0.656,0.449-1.766,1.166c1.147,0.736,1.756,1.14,1.823,1.21
		c0.521,0.475,0.781,1.126,0.781,1.953V22.077z M85.496,9.271V3.534h-4.24v6.948h2.605L85.496,9.271z M85.583,21.259v-6.75
		l-1.664-1.15h-2.663v7.9H85.583z"/>
	<path style="fill:#FFFFFF;" d="M93.393,24.241h-3.256V0.552h3.256V24.241z"/>
	<path style="fill:#FFFFFF;" d="M104.067,22.349c0,1.262-0.613,1.893-1.838,1.893h-5.933c-1.245,0-1.867-0.631-1.867-1.893V10.845
		c0-1.261,0.622-1.892,1.867-1.892h5.933c1.225,0,1.838,0.631,1.838,1.892V22.349z M100.826,21.365v-9.521h-3.141v9.521H100.826z"/>
	<path style="fill:#FFFFFF;" d="M114.729,27.935c0,1.262-0.622,1.893-1.866,1.893h-5.76c-1.244,0-1.866-0.631-1.866-1.893v-2.452
		h3.197v1.831h2.996V24.15h-3.401c-0.926,0-1.661-0.272-2.206-0.817c-0.546-0.545-0.818-1.297-0.818-2.256v-9.354
		c0-0.878,0.236-1.569,0.71-2.074c0.472-0.504,1.123-0.757,1.953-0.757c0.415,0,1.669,0.207,3.763,0.621v-0.56h3.299V27.935z
		 M111.43,21.365v-9.4c-1.109-0.121-1.8-0.181-2.069-0.181c-0.715,0-1.071,0.369-1.071,1.105v7.326c0,0.767,0.366,1.15,1.1,1.15
		H111.43z"/>
	<path style="fill:#FFFFFF;" d="M118.877,24.241h-3.256v-3.663h3.256V24.241z"/>
</g>
</svg>
